<!-- Generated by IcoMoon.io -->
<svg version="1.1" xmlns="http://www.w3.org/2000/svg" width="32" height="32" viewBox="0 0 32 32">
<title>envelope-hover</title>
<path fill="#2196f3" d="M29 4h-26c-1.654 0-3 1.256-3 2.8v16.804c0 1.544 1.346 2.8 3 2.8h26c1.654 0 3-1.256 3-2.8v-16.804c0-1.544-1.346-2.8-3-2.8zM29 5.866c0.136 0 0.266 0.028 0.384 0.074l-13.384 10.828-13.384-10.828c0.114-0.046 0.246-0.073 0.384-0.074h26zM29 24.536h-26c-0.552 0-1-0.418-1-0.932v-15.692l13.344 10.796c0.176 0.142 0.403 0.228 0.65 0.228 0.002 0 0.004 0 0.006-0h-0c0.002 0 0.004 0 0.006 0 0.247 0 0.474-0.086 0.652-0.23l-0.002 0.002 13.344-10.796v15.692c0 0.514-0.448 0.932-1 0.932z"></path>
</svg>
